<svg width="50" height="50" viewBox="0 0 50 50" fill="none" xmlns="http://www.w3.org/2000/svg">
<path d="M25.3819 29.047C25.8279 26.9052 24.9928 24.5476 23.1785 23.4107C24.5971 22.2563 25.2126 20.3031 24.8055 18.5352C24.5651 17.4914 23.9687 16.5065 22.9741 15.7801C21.981 15.0548 20.6192 14.607 18.874 14.5813V14.5812H18.8667H10.4167H9.91667V15.0812V33.2687V33.7687H10.4167H18.2729C20.418 33.7687 22.0659 33.2305 23.2497 32.3556C24.4348 31.4797 25.1233 30.2891 25.3819 29.047ZM28.6667 16.8771V17.3771H29.1667H37.5H38V16.8771V15.0542V14.5542H37.5H29.1667H28.6667V15.0542V16.8771ZM39.9589 24.4954L39.9586 24.494C39.3459 20.5534 35.9353 18.4751 32.7048 18.6612C31.0831 18.7547 29.487 19.417 28.2969 20.7102C27.1045 22.006 26.3542 23.8974 26.3542 26.3875C26.3542 28.8424 27.0587 30.6495 28.1994 31.8754C29.3373 33.0983 30.8627 33.6924 32.4121 33.811C33.958 33.9294 35.5509 33.5776 36.8688 32.8825C38.183 32.1893 39.2681 31.1291 39.7212 29.7987L39.9464 29.1375H39.2479H35.3979H35.1688L35.0193 29.311C34.5065 29.9056 33.4269 30.1693 32.4646 29.8533C32 29.7008 31.5897 29.4194 31.3051 29.0013C31.0805 28.6715 30.9198 28.2357 30.887 27.6708H39.5771H40.069L40.077 27.1789C40.0959 26.013 40.0589 25.1512 39.9589 24.4954ZM18.4167 22.0729H14.8229V19.2H18.0375C18.9372 19.2 19.5202 19.4226 19.8653 19.6967C20.2042 19.9658 20.3424 20.3042 20.3381 20.6297C20.3294 21.2721 19.7236 22.0729 18.4167 22.0729ZM35.3637 24.2771H31.1001C31.4852 23.042 32.4373 22.5227 33.3142 22.5449C34.1971 22.5672 35.0847 23.1357 35.3637 24.2771ZM14.8229 29.1583V26.1021H18.1854C19.6902 26.1021 20.3162 26.959 20.33 27.6396C20.3372 27.9941 20.1909 28.3583 19.8563 28.6428C19.5194 28.9293 18.9613 29.1579 18.1226 29.1583H14.8229ZM49.5 25C49.5 38.5301 38.5301 49.5 25 49.5C11.4699 49.5 0.5 38.5301 0.5 25C0.5 11.4699 11.4699 0.5 25 0.5C38.5301 0.5 49.5 11.4699 49.5 25Z" stroke="black"/>
</svg>
