<svg width="246" height="55" viewBox="0 0 246 55" fill="none" xmlns="http://www.w3.org/2000/svg">
<rect width="246" height="55" rx="26" fill="black"/>
<path d="M44.704 17.912L37.24 35H35.512L28.048 17.912H30.136L36.4 32.504L42.664 17.912H44.704ZM46.6064 22.928H48.5504V35H46.6064V22.928ZM48.7904 17.816V20.024H46.4144V17.816H48.7904ZM62.4291 28.904H53.5731C53.5891 30.44 53.9411 31.6 54.6291 32.384C55.3331 33.168 56.3491 33.56 57.6771 33.56C59.0851 33.56 60.3811 33.088 61.5651 32.144L62.2131 33.56C61.6851 34.056 61.0051 34.448 60.1731 34.736C59.3571 35.024 58.5171 35.168 57.6531 35.168C55.7651 35.168 54.2851 34.616 53.2131 33.512C52.1411 32.392 51.6051 30.864 51.6051 28.928C51.6051 27.696 51.8451 26.608 52.3251 25.664C52.8051 24.704 53.4771 23.96 54.3411 23.432C55.2051 22.904 56.1891 22.64 57.2931 22.64C58.8931 22.64 60.1491 23.168 61.0611 24.224C61.9731 25.264 62.4291 26.704 62.4291 28.544V28.904ZM57.3171 24.152C56.3091 24.152 55.4851 24.456 54.8451 25.064C54.2211 25.672 53.8211 26.528 53.6451 27.632H60.6771C60.5811 26.496 60.2451 25.632 59.6691 25.04C59.1091 24.448 58.3251 24.152 57.3171 24.152ZM83.5752 22.928L79.1112 35H77.2392L73.7832 25.568L70.3512 35H68.4792L64.0152 22.928H66.0552L69.4632 32.672L72.9912 22.928H74.6952L78.1752 32.696L81.6552 22.928H83.5752ZM99.8924 35.192C98.2764 35.192 96.8684 34.84 95.6684 34.136C94.4844 33.432 93.5724 32.424 92.9324 31.112C92.2924 29.784 91.9724 28.224 91.9724 26.432C91.9724 24.64 92.2924 23.096 92.9324 21.8C93.5724 20.488 94.4844 19.48 95.6684 18.776C96.8684 18.072 98.2764 17.72 99.8924 17.72C101.076 17.72 102.156 17.904 103.132 18.272C104.124 18.624 104.98 19.16 105.7 19.88L104.956 21.392C104.14 20.688 103.332 20.184 102.532 19.88C101.748 19.576 100.876 19.424 99.9164 19.424C98.0444 19.424 96.5884 20.032 95.5484 21.248C94.5244 22.464 94.0124 24.192 94.0124 26.432C94.0124 28.688 94.5244 30.432 95.5484 31.664C96.5724 32.88 98.0284 33.488 99.9164 33.488C100.876 33.488 101.748 33.336 102.532 33.032C103.332 32.728 104.14 32.224 104.956 31.52L105.7 33.032C104.98 33.752 104.124 34.296 103.132 34.664C102.156 35.016 101.076 35.192 99.8924 35.192ZM119.16 22.928V35H117.24V32.816C116.888 33.568 116.352 34.152 115.632 34.568C114.928 34.968 114.104 35.168 113.16 35.168C112.088 35.168 111.144 34.912 110.328 34.4C109.528 33.888 108.904 33.168 108.456 32.24C108.024 31.296 107.808 30.2 107.808 28.952C107.808 27.704 108.032 26.608 108.48 25.664C108.928 24.704 109.552 23.96 110.352 23.432C111.168 22.904 112.104 22.64 113.16 22.64C114.104 22.64 114.928 22.848 115.632 23.264C116.336 23.68 116.872 24.264 117.24 25.016V22.928H119.16ZM113.544 33.56C114.728 33.56 115.64 33.16 116.28 32.36C116.92 31.544 117.24 30.392 117.24 28.904C117.24 27.416 116.92 26.272 116.28 25.472C115.64 24.672 114.728 24.272 113.544 24.272C112.36 24.272 111.432 24.688 110.76 25.52C110.104 26.336 109.776 27.48 109.776 28.952C109.776 30.424 110.104 31.56 110.76 32.36C111.416 33.16 112.344 33.56 113.544 33.56ZM126.999 35.168C124.967 35.168 123.359 34.648 122.175 33.608L122.823 32.168C123.479 32.68 124.143 33.048 124.815 33.272C125.487 33.496 126.239 33.608 127.071 33.608C127.983 33.608 128.671 33.456 129.135 33.152C129.615 32.832 129.855 32.376 129.855 31.784C129.855 31.304 129.695 30.92 129.375 30.632C129.055 30.344 128.527 30.12 127.791 29.96L125.751 29.48C124.743 29.256 123.959 28.856 123.399 28.28C122.855 27.704 122.583 27.016 122.583 26.216C122.583 25.16 123.007 24.304 123.855 23.648C124.703 22.976 125.823 22.64 127.215 22.64C128.063 22.64 128.863 22.776 129.615 23.048C130.367 23.32 130.999 23.712 131.511 24.224L130.863 25.64C129.727 24.696 128.511 24.224 127.215 24.224C126.351 24.224 125.679 24.392 125.199 24.728C124.735 25.048 124.503 25.504 124.503 26.096C124.503 26.592 124.647 26.984 124.935 27.272C125.239 27.56 125.719 27.784 126.375 27.944L128.415 28.448C129.535 28.704 130.367 29.104 130.911 29.648C131.455 30.176 131.727 30.872 131.727 31.736C131.727 32.776 131.303 33.608 130.455 34.232C129.607 34.856 128.455 35.168 126.999 35.168ZM144.929 28.904H136.073C136.089 30.44 136.441 31.6 137.129 32.384C137.833 33.168 138.849 33.56 140.177 33.56C141.585 33.56 142.881 33.088 144.065 32.144L144.713 33.56C144.185 34.056 143.505 34.448 142.673 34.736C141.857 35.024 141.017 35.168 140.153 35.168C138.265 35.168 136.785 34.616 135.713 33.512C134.641 32.392 134.105 30.864 134.105 28.928C134.105 27.696 134.345 26.608 134.825 25.664C135.305 24.704 135.977 23.96 136.841 23.432C137.705 22.904 138.689 22.64 139.793 22.64C141.393 22.64 142.649 23.168 143.561 24.224C144.473 25.264 144.929 26.704 144.929 28.544V28.904ZM139.817 24.152C138.809 24.152 137.985 24.456 137.345 25.064C136.721 25.672 136.321 26.528 136.145 27.632H143.177C143.081 26.496 142.745 25.632 142.169 25.04C141.609 24.448 140.825 24.152 139.817 24.152ZM159.802 35.192C157.13 35.192 155.002 34.472 153.418 33.032L154.162 31.52C155.01 32.24 155.874 32.752 156.754 33.056C157.634 33.36 158.658 33.512 159.826 33.512C161.202 33.512 162.258 33.248 162.994 32.72C163.746 32.176 164.122 31.416 164.122 30.44C164.122 29.864 163.938 29.4 163.57 29.048C163.218 28.68 162.746 28.392 162.154 28.184C161.578 27.976 160.802 27.76 159.826 27.536C158.514 27.248 157.434 26.936 156.586 26.6C155.738 26.264 155.05 25.784 154.522 25.16C153.994 24.52 153.73 23.688 153.73 22.664C153.73 21.688 153.986 20.832 154.498 20.096C155.01 19.344 155.73 18.76 156.658 18.344C157.602 17.928 158.698 17.72 159.946 17.72C161.13 17.72 162.234 17.904 163.258 18.272C164.282 18.64 165.146 19.176 165.85 19.88L165.082 21.392C164.282 20.704 163.466 20.2 162.634 19.88C161.818 19.56 160.922 19.4 159.946 19.4C158.618 19.4 157.578 19.688 156.826 20.264C156.074 20.824 155.698 21.6 155.698 22.592C155.698 23.456 156.026 24.104 156.682 24.536C157.338 24.968 158.346 25.344 159.706 25.664C161.178 26.016 162.33 26.344 163.162 26.648C164.01 26.936 164.714 27.384 165.274 27.992C165.834 28.584 166.114 29.376 166.114 30.368C166.114 31.328 165.858 32.176 165.346 32.912C164.834 33.632 164.098 34.192 163.138 34.592C162.194 34.992 161.082 35.192 159.802 35.192ZM171.612 24.464V31.064C171.612 31.96 171.796 32.592 172.164 32.96C172.532 33.312 173.052 33.488 173.724 33.488C174.172 33.488 174.604 33.416 175.02 33.272V34.928C174.524 35.088 173.964 35.168 173.34 35.168C172.188 35.168 171.284 34.848 170.628 34.208C169.988 33.552 169.668 32.592 169.668 31.328V24.464H167.316V22.928H169.668V19.832L171.612 19.136V22.928H175.068V24.464H171.612ZM187.515 22.928V35H185.619V32.912C185.235 33.648 184.699 34.208 184.011 34.592C183.323 34.976 182.547 35.168 181.683 35.168C180.259 35.168 179.179 34.768 178.443 33.968C177.707 33.168 177.339 31.984 177.339 30.416V22.928H179.283V30.368C179.283 31.456 179.507 32.256 179.955 32.768C180.403 33.28 181.083 33.536 181.995 33.536C183.067 33.536 183.931 33.192 184.587 32.504C185.243 31.8 185.571 30.88 185.571 29.744V22.928H187.515ZM201.895 17.336V35H199.975V32.816C199.623 33.568 199.087 34.152 198.367 34.568C197.663 34.968 196.839 35.168 195.895 35.168C194.839 35.168 193.903 34.904 193.087 34.376C192.287 33.848 191.663 33.112 191.215 32.168C190.767 31.208 190.543 30.104 190.543 28.856C190.543 27.608 190.759 26.52 191.191 25.592C191.639 24.648 192.271 23.92 193.087 23.408C193.903 22.896 194.839 22.64 195.895 22.64C196.839 22.64 197.663 22.848 198.367 23.264C199.071 23.664 199.599 24.232 199.951 24.968V17.336H201.895ZM196.279 33.56C197.463 33.56 198.375 33.16 199.015 32.36C199.655 31.544 199.975 30.392 199.975 28.904C199.975 27.432 199.655 26.296 199.015 25.496C198.375 24.68 197.463 24.272 196.279 24.272C195.095 24.272 194.167 24.672 193.495 25.472C192.839 26.272 192.511 27.4 192.511 28.856C192.511 30.344 192.839 31.504 193.495 32.336C194.167 33.152 195.095 33.56 196.279 33.56ZM216.261 22.928L210.621 36.104C210.029 37.48 209.285 38.488 208.389 39.128C207.493 39.768 206.389 40.208 205.077 40.448L204.669 38.936C205.805 38.68 206.661 38.336 207.237 37.904C207.829 37.488 208.317 36.84 208.701 35.96L209.181 34.88L204.069 22.928H206.109L210.189 32.888L214.317 22.928H216.261Z" fill="white"/>
</svg>
