<svg width="50" height="50" viewBox="0 0 50 50" fill="none" xmlns="http://www.w3.org/2000/svg">
<path d="M38.1312 10.6309C38.2872 10.1558 38.2867 10.1556 38.2862 10.1555L38.2851 10.1551L38.2829 10.1544L38.2778 10.1528L38.2652 10.149C38.2558 10.1463 38.2442 10.1431 38.2306 10.1396C38.2032 10.1326 38.1673 10.1244 38.1229 10.1161C38.0339 10.0997 37.9108 10.0832 37.7526 10.0758C37.4358 10.0609 36.9813 10.0828 36.381 10.2127C35.2136 10.4652 33.499 11.1253 31.1714 12.7138C29.1924 12.1746 27.089 11.9057 25.0025 11.8952L24.9975 11.8952C22.9112 11.9057 20.8097 12.1745 18.8346 12.7137C16.5049 11.1252 14.7883 10.4652 13.6194 10.2126C13.0184 10.0828 12.5632 10.0609 12.2461 10.0758C12.0877 10.0831 11.9645 10.0997 11.8754 10.1161C11.8309 10.1243 11.795 10.1325 11.7676 10.1395C11.7539 10.143 11.7424 10.1462 11.733 10.149L11.7204 10.1527L11.7153 10.1543L11.7131 10.155L11.712 10.1554C11.7115 10.1556 11.711 10.1557 11.8667 10.6309L11.711 10.1557L11.4854 10.2296L11.4 10.4513C10.1301 13.7502 10.7103 16.2961 11.0522 17.3098C9.49283 19.1572 8.54792 21.4844 8.54792 24.2949C8.54792 29.31 10.0436 32.469 12.334 34.4456C14.3522 36.1873 16.926 36.9553 19.4459 37.3355C18.9667 38.0143 18.5853 38.9182 18.3969 40.0422C17.7012 40.3317 16.657 40.6424 15.5589 40.5419C14.3605 40.4321 13.0449 39.8299 12.0117 38.0165L12.0089 38.0113L11.9941 37.9851C11.9817 37.9632 11.964 37.9327 11.941 37.8947C11.895 37.8189 11.8277 37.7129 11.7394 37.5863C11.5633 37.3339 11.3008 36.9959 10.9527 36.651C10.2606 35.9652 9.19687 35.2204 7.77939 35.1191L7.76509 35.1181L7.75075 35.1179L7.74375 35.6178C7.75075 35.1179 7.75058 35.1179 7.75041 35.1179L7.75001 35.1178L7.74904 35.1178L7.74643 35.1178L7.73858 35.1178L7.7129 35.1178C7.69157 35.118 7.66195 35.1185 7.62584 35.1198C7.55409 35.1223 7.45442 35.1279 7.34205 35.1404C7.13731 35.1634 6.81385 35.2167 6.55485 35.3676C6.41932 35.4465 6.258 35.5772 6.16862 35.7868C6.07338 36.0101 6.09344 36.2428 6.17788 36.4495C6.32748 36.8155 6.71109 37.1827 7.28372 37.5843L7.31727 37.6078L7.35046 37.6238L7.35112 37.6241L7.35117 37.6241L7.35239 37.6247L7.35582 37.6265C7.36234 37.63 7.37468 37.6367 7.39232 37.6469C7.42761 37.6674 7.48413 37.7022 7.55783 37.7539C7.70514 37.8571 7.92148 38.0281 8.17446 38.2881C8.67797 38.8055 9.33345 39.6825 9.87719 41.0947L9.87931 41.101C9.88358 41.1135 9.88949 41.1302 9.89715 41.1508C9.91246 41.1921 9.93483 41.249 9.96531 41.319C10.0262 41.4588 10.1199 41.6515 10.2548 41.8749C10.5245 42.3215 10.9617 42.8954 11.6357 43.4155C12.9236 44.4092 15.0031 45.151 18.25 44.5617V48.7222C18.25 48.9746 18.1727 49.1944 18.0409 49.3244C17.9324 49.4313 17.7089 49.5543 17.2245 49.4695C7.50984 46.1382 0.5 36.7301 0.5 25.632C0.5 11.7411 11.4836 0.5 25 0.5C38.5184 0.5 49.5 11.741 49.5 25.632C49.5 36.7268 42.4973 46.1333 32.7899 49.4681C32.2918 49.5602 32.0663 49.4361 31.9589 49.3306C31.8276 49.2017 31.75 48.9806 31.75 48.7222V41.6883C31.75 39.7564 31.2389 38.2987 30.5352 37.3162C33.0585 36.944 35.6351 36.1861 37.6558 34.4518C39.9518 32.4814 41.45 29.3226 41.45 24.2949C41.45 21.4876 40.5135 19.1581 38.9481 17.3094C39.2903 16.2958 39.869 13.7504 38.5978 10.4511L38.5125 10.2298L38.2872 10.1558L38.1312 10.6309Z" stroke="black"/>
</svg>
