<svg width="50" height="50" viewBox="0 0 50 50" fill="none" xmlns="http://www.w3.org/2000/svg">
<path d="M24.7149 28.2587L25.0003 28.4567L25.2855 28.2584L35.8292 20.9255V33.5271H14.1237L14.1443 20.9232L24.7149 28.2587ZM24.9988 22.758L15.7495 16.2979H34.1904C32.6418 17.3817 30.6596 18.7743 28.909 20.0056C27.7603 20.8135 26.7111 21.5521 25.949 22.0887L25.0447 22.7256L24.9988 22.758ZM0.5 25C0.5 11.4679 11.4719 0.5 25 0.5C38.5301 0.5 49.5 11.4678 49.5 25C49.5 38.5301 38.5301 49.5 25 49.5C11.4719 49.5 0.5 38.5301 0.5 25ZM37.5021 35.7437C38.9285 35.7437 40.0833 34.5862 40.0833 33.1625V16.6646C40.0833 15.2405 38.9261 14.0833 37.5021 14.0833H12.4979C11.0739 14.0833 9.91667 15.2405 9.91667 16.6646V33.1625C9.91667 34.5866 11.0739 35.7437 12.4979 35.7437H37.5021Z" stroke="black"/>
</svg>
