<svg width="50" height="50" viewBox="0 0 50 50" fill="none" xmlns="http://www.w3.org/2000/svg">
<path d="M20.8333 33.8333H21.3333V33.3333V20.8333V20.3333H20.8333H16.6667H16.1667V20.8333V33.3333V33.8333H16.6667H20.8333ZM35.4167 33.8333H35.9167V33.3333V26.3354C35.9167 24.5469 35.4904 23.1699 34.7755 22.1792C34.0581 21.1849 33.0739 20.6138 32.0295 20.4045C30.4672 20.0915 28.7607 20.5878 27.5833 21.6708V20.8333V20.3333H27.0833H22.9167H22.4167V20.8333V33.3333V33.8333H22.9167H27.0833H27.5833V33.3333V27.3729C27.5833 25.7745 28.4816 25.0858 29.1886 25.0577C29.553 25.0432 29.9268 25.1894 30.2201 25.5374C30.5169 25.8895 30.7542 26.4792 30.7542 27.3729V33.3333V33.8333H31.2542H35.4167ZM0.5 25C0.5 11.4699 11.4699 0.5 25 0.5C38.5301 0.5 49.5 11.4699 49.5 25C49.5 38.5301 38.5301 49.5 25 49.5C11.4699 49.5 0.5 38.5301 0.5 25ZM15.9583 16.6667C15.9583 18.2163 17.2057 19.4771 18.75 19.4771C20.2943 19.4771 21.5417 18.2163 21.5417 16.6667C21.5417 15.1197 20.2969 13.8562 18.75 13.8562C17.2031 13.8562 15.9583 15.1197 15.9583 16.6667Z" stroke="black"/>
</svg>
