<svg width="77" height="73" viewBox="0 0 77 73" fill="none" xmlns="http://www.w3.org/2000/svg">
<ellipse cx="38.0755" cy="36.5" rx="38.0755" ry="36.5" fill="#40CCCC" fill-opacity="0.7"/>
<path d="M53.043 57.7111C37.4189 58.4442 26.2588 52.3772 26.2588 36.0064C26.2588 24.0193 33.3467 14.7051 53.043 14.7051" stroke="black"/>
<line x1="52.543" y1="57.5645" x2="52.543" y2="14.7049" stroke="black"/>
<line x1="15.6836" y1="57.5645" x2="15.6836" y2="14.7046" stroke="black"/>
<line x1="16.1132" y1="14.3553" x2="35.8286" y2="34.4993" stroke="black"/>
<line x1="35.0939" y1="34.5199" x2="52.6663" y2="14.376" stroke="black"/>
<path d="M60.0918 54.1895C60.0918 53.5566 60.3086 53.0234 60.7422 52.5898C61.1758 52.1562 61.7148 51.9395 62.3594 51.9395C63.0156 51.9395 63.5605 52.1621 63.9941 52.6074C64.4277 53.041 64.6445 53.5684 64.6445 54.1895C64.6445 54.7988 64.4277 55.3262 63.9941 55.7715C63.5605 56.2051 63.0098 56.4219 62.3418 56.4219C61.6973 56.4219 61.1582 56.2051 60.7246 55.7715C60.3027 55.3262 60.0918 54.7988 60.0918 54.1895Z" fill="black"/>
</svg>
