<svg width="47" height="19" viewBox="0 0 47 19" fill="none" xmlns="http://www.w3.org/2000/svg">
<path d="M12.3763 18.5361H45.1508C45.9108 18.5361 46.5293 17.8148 46.5293 16.9281C46.5293 16.4978 46.3859 16.0952 46.1256 15.7911C45.8657 15.4876 45.5193 15.32 45.1508 15.32H12.3763C11.6163 15.32 10.9978 16.0419 10.9978 16.9286C10.9973 17.8153 11.6163 18.5361 12.3763 18.5361Z" fill="black"/>
<path d="M1.84781 3.84863L45.1508 3.84863C45.9108 3.84863 46.5293 3.12729 46.5293 2.24057C46.5293 1.81026 46.3859 1.4077 46.1256 1.10361C45.8657 0.800056 45.5193 0.632504 45.1508 0.632504L1.84828 0.632504C1.08829 0.632504 0.469769 1.35439 0.469769 2.24111C0.469769 3.12783 1.08782 3.84863 1.84781 3.84863Z" fill="black"/>
</svg>
